# xmcd CD database file
#
# Track frame offsets:
#	150
#	13443
#	35783
#	57552
#	72003
#	96535
#	109880
#	126545
#	142143
#	159265
#	179413
#	194667
#	210276
#
# Disc length: 3107 seconds
#
# Revision: 0
# Processed by: cddbd v1.5.2PL0 Copyright (c) Steve Scherf et al.
# Submitted via: CDex 1.70beta2
#
DISCID=d10c210d
DTITLE=Stefanie Boltz - The Door
DYEAR=2018
DGENRE=Jazz
TTITLE0=Adorable Stupid Girls
TTITLE1=Stones Shape
TTITLE2=The Door
TTITLE3=I Want to be Loved
TTITLE4=Way Too Tight
TTITLE5=I Grew Up
TTITLE6=Naked Pony Ride
TTITLE7=The Pain in My Right Knee
TTITLE8=Meine weiﬂen Tasten
TTITLE9=I Just Can't Finish This Song
TTITLE10=Answers
TTITLE11=You Learned to Call My Name
TTITLE12=Days of Coke and Coffee
EXTD=YEAR: 2018
EXTT0=
EXTT1=
EXTT2=
EXTT3=
EXTT4=
EXTT5=
EXTT6=
EXTT7=
EXTT8=
EXTT9=
EXTT10=
EXTT11=
EXTT12=
PLAYORDER=
